<svg xmlns="http://www.w3.org/2000/svg" viewBox="0 0 300 300" width="300" height="300">
  <defs>
    <clipPath id="ic"><rect x="0" y="0" width="300" height="300" rx="72"/></clipPath>
    <linearGradient id="bg" x1="0" y1="0" x2="1" y2="1">
      <stop offset="0%" stop-color="#f5f5f5"/>
      <stop offset="100%" stop-color="#e8e8e8"/>
    </linearGradient>
  </defs>
  <rect x="0" y="0" width="300" height="300" rx="72" fill="url(#bg)"/>
  <g clip-path="url(#ic)">
    <!-- TRIGGERS — blue -->
    <circle cx="62" cy="108" r="11" fill="#378ADD"/>
    <circle cx="62" cy="150" r="11" fill="#378ADD" opacity="0.6"/>
    <circle cx="62" cy="192" r="11" fill="#378ADD" opacity="0.3"/>
    <line x1="73" y1="108" x2="139" y2="108" stroke="#378ADD" stroke-width="1.4" opacity="0.4"/>
    <line x1="73" y1="150" x2="139" y2="150" stroke="#378ADD" stroke-width="1.4" opacity="0.28"/>
    <line x1="73" y1="192" x2="139" y2="192" stroke="#378ADD" stroke-width="1.4" opacity="0.15"/>
    <!-- CONDITIONS — amber -->
    <circle cx="150" cy="108" r="11" fill="#F5A623"/>
    <circle cx="150" cy="150" r="11" fill="#F5A623" opacity="0.6"/>
    <circle cx="150" cy="192" r="11" fill="#F5A623" opacity="0.3"/>
    <line x1="161" y1="108" x2="227" y2="108" stroke="#00B386" stroke-width="1.4" opacity="0.4"/>
    <line x1="161" y1="150" x2="227" y2="150" stroke="#00B386" stroke-width="1.4" opacity="0.28"/>
    <line x1="161" y1="192" x2="227" y2="192" stroke="#00B386" stroke-width="1.4" opacity="0.15"/>
    <!-- ACTIONS — teal -->
    <circle cx="238" cy="108" r="11" fill="#00B386"/>
    <circle cx="238" cy="150" r="11" fill="#00B386" opacity="0.6"/>
    <circle cx="238" cy="192" r="11" fill="#00B386" opacity="0.3"/>
  </g>
</svg>
